<svg width="1496" height="1441" viewBox="0 0 1496 1441" fill="none" xmlns="http://www.w3.org/2000/svg">
<rect width="1496" height="1441" fill="#F0E7FF"/>
<g clip-path="url(#clip0_8007_63298)">
<path fill-rule="evenodd" clip-rule="evenodd" d="M666.716 433.695C681.785 423.749 703.658 415.508 725.051 411.715C737.069 409.585 769.132 410.24 779.735 412.833C813.049 420.981 839.895 437.6 859.785 462.39C866.672 470.974 879.892 494.425 879.892 498.058C879.892 499.105 881.81 499.943 885.36 500.446C894.51 501.745 907.791 506.625 913.523 510.794C920.726 516.033 927.49 524.773 930.641 532.913C934.237 542.204 934.253 560.642 930.673 570.624C923.466 590.722 904.353 604.591 883.865 604.591C881.68 604.591 879.892 605.037 879.892 605.581C879.892 606.126 876.251 612.036 871.799 618.716C863.182 631.647 852.429 642.716 840.835 650.59C836.989 653.202 833.843 655.874 833.843 656.529C833.843 657.183 837.469 669.491 841.901 683.879C846.334 698.267 849.96 710.629 849.96 711.35C849.96 712.072 852.938 713.519 856.58 714.567C878.484 720.872 879.892 721.39 879.869 723.13C879.857 724.112 879.084 730.614 878.153 737.58C877.22 744.546 876.453 750.562 876.448 750.951C876.443 751.339 880.742 755.225 886.003 759.586C902.455 773.229 910.327 783.506 913.685 795.727C920.372 820.058 913.118 840.491 892.88 854.324L889.177 856.856L892.16 863.425C900.686 882.202 905.227 901.864 905.202 919.894C905.177 938.437 900.803 953.471 891.434 967.223C887.194 973.448 876.231 984.576 870.937 988.031C868.427 989.668 868.371 990.025 869.647 996.313C873.595 1015.77 859.341 1030.61 836.721 1030.58C809.366 1030.55 785.403 1013.56 776.274 987.721L774.141 981.682L766.864 982.257C756.297 983.093 737.801 982.963 728.482 981.986L720.399 981.139L718.284 987.167C713.775 1000.02 704.945 1011.55 693.648 1019.32C678.067 1030.04 654.218 1033.56 640.872 1027.1C629.479 1021.58 622.77 1009.13 625.293 998.195C627.071 990.495 626.983 989.436 624.5 988.648C621.007 987.539 606.263 972.509 601.758 965.466C599.449 961.855 595.957 954.7 594 949.566C590.538 940.483 590.441 939.703 590.399 920.656C590.351 898.193 592.257 888.487 600.354 869.994C602.849 864.294 605.106 859.113 605.37 858.479C605.633 857.846 603.722 856.033 601.124 854.45C594.918 850.668 586.852 840.743 582.411 831.421C579.095 824.464 578.851 823.085 578.936 811.847C579.011 802.148 579.553 798.39 581.68 792.848C586.54 780.184 596.445 768.349 611.965 756.663C618.03 752.096 618.557 751.35 618.023 748.075C616.817 740.665 615.108 726.372 615.108 723.68C615.108 722.142 615.762 720.885 616.561 720.885C617.36 720.885 622.083 719.593 627.056 718.014C632.029 716.436 637.992 714.634 640.307 714.011C644.455 712.894 644.572 712.7 648.096 701.048C657.608 669.601 661.157 657.531 661.157 656.627C661.157 656.085 658.437 653.901 655.113 651.774C642.42 643.652 625.009 624.495 616.776 609.594C613.663 603.958 613.304 603.691 609.651 604.284C603.98 605.204 591.825 601.483 584.022 596.439C576.102 591.319 568.196 581.314 564.282 571.459C562.105 565.976 561.657 562.63 561.621 551.566C561.577 538.471 561.642 538.129 565.903 529.507C573.502 514.13 586.437 504.74 604.086 501.786C609.59 500.865 613.554 499.6 614.077 498.597C614.552 497.682 616.467 493.52 618.33 489.35C620.193 485.179 624.207 477.925 627.25 473.23C634.232 462.456 655.655 440.996 666.716 433.695ZM652.545 473.256C668.119 453.839 701.18 436.162 729.693 432.008C740.716 430.402 757.934 430.591 768.499 432.434C798.098 437.596 827.408 455.16 843.94 477.641C849.761 485.555 859.17 501.899 859.17 504.095C859.17 520.954 862.024 503.733 822.5 503.945C801.605 504.058 790.043 505.824 776.478 510.978C765.786 515.039 756.282 517.031 747.454 517.059C739.311 517.085 728.28 514.666 724.125 511.944C722.7 511.009 715.331 508.847 707.751 507.138C695.873 504.46 691.262 504.018 674.397 503.936C663.633 503.884 650.223 504.283 644.598 504.822L634.372 505.801L635.158 502.519C636.353 497.54 645.737 481.747 652.545 473.256ZM637.679 538.917C637.502 522.962 639.711 520.304 654.826 518.276C664.706 516.951 691.468 517.871 700.488 519.846C710.877 522.122 715.122 524.518 717.083 529.212C722.027 541.046 715.016 565.337 703.351 576.787C696.856 583.162 688.207 586.168 676.361 586.168C659.869 586.168 650.9 581.67 644.71 570.295C640.195 561.997 637.817 551.387 637.679 538.917ZM603.248 519.897C608.56 518.002 609.352 517.926 609.352 519.309C609.352 597.301 618.562 589.622 595.783 554.405C588.054 537.958 581.158 527.777 603.248 519.897ZM797.411 520.073C806.589 518.952 815.134 518.252 824.683 518.474C842.773 518.893 846.726 519.309 850.586 521.192C857.345 524.492 858.606 529.178 856.958 544.889C855.466 559.116 852.574 568.444 847.781 574.499C840.866 583.231 825.568 587.742 811.63 585.161C797.911 582.62 789.999 576.474 783.358 563.202C778.397 553.289 775.548 540.351 776.825 533.538C778.253 525.926 784.847 521.614 797.411 520.073ZM888.346 521.343C884.648 519.142 884.147 505.348 905.187 529.311C909.481 534.205 913.342 542.056 912.515 544.214C912.211 545.008 910.482 546.27 908.673 547.02C906.865 547.768 904.448 549.418 903.3 550.686C902.154 551.954 900.264 553.5 899.1 554.122C897.294 555.089 897.141 554.948 898.045 553.152C899.689 549.888 898.848 537.581 896.698 533.422C894.694 529.546 894.094 528.787 891.925 525.42C890.806 523.685 889.195 521.85 888.346 521.343ZM822.911 522.928C827.224 524.966 831.607 528.046 833.239 530.185C847.61 549.03 836.4 573.997 813.634 573.842C803.756 573.776 795.458 568.94 789.962 560.046C786.161 553.894 786.544 543.18 790.875 534.52C796.528 523.217 811.268 517.424 822.911 522.928ZM659.718 559.759C653.016 546.54 657.901 530.923 670.987 523.73C687.885 514.443 707.726 526.604 709.279 547.2C709.693 552.688 709.272 554.627 706.605 559.53C701.262 569.349 691.388 574.267 679.232 573.164C670.042 572.332 663.981 568.168 659.718 559.759ZM672.473 547.417C669.829 545.025 669.75 539.248 672.323 536.404C675.066 533.373 680.489 534.139 683.327 537.958C688.517 544.944 678.951 553.28 672.473 547.417ZM804.486 549.323C798.284 549.323 794.716 541.094 798.908 536.46C803.02 531.917 811.969 536.103 811.969 542.57C811.969 545.626 807.873 549.323 804.486 549.323ZM730.712 555.795C735.479 543.307 736.006 542.548 741.25 540.635C743.826 539.696 747.507 539.267 749.803 539.639C753.641 540.261 760.164 545.117 760.164 547.352C760.164 547.93 763.231 554.814 766.978 562.651C776.896 583.387 786.765 593.288 801.197 596.977C816.601 600.913 828.738 600.452 842.134 595.419C849.454 592.669 866.9 580.644 866.913 571.584C866.92 567.664 872.31 542.704 873.382 541.634C874.471 540.544 874.273 551.672 872.987 563.883C871.585 577.185 866.446 591.631 859.204 602.619C852.878 612.22 840.154 625.371 831.267 631.492C824.907 635.873 805.401 644.824 801.877 644.978C800.779 645.027 798.068 645.81 795.852 646.717L791.823 648.368L796.428 647.784C798.96 647.463 802.899 646.884 805.179 646.498L809.326 645.796L811.927 657.051C814.22 666.976 825.77 703.605 828.061 708.219C828.533 709.169 829.267 711.396 829.69 713.167C830.448 716.334 830.204 716.51 815.157 723.678C806.739 727.687 794.161 733.579 787.204 736.77C780.246 739.96 769.144 745.174 762.533 748.355C755.921 751.535 750.08 753.872 749.553 753.546C749.025 753.22 748.669 753.38 748.76 753.903C749.217 756.538 747.799 756.173 737.427 750.977C731.253 747.884 712.474 739.024 695.695 731.288C678.915 723.55 664.756 716.811 664.229 716.31C663.702 715.809 663.829 714.431 664.512 713.248C666.021 710.635 681.326 663.304 683.928 653.203C685.219 648.192 686.256 646.149 687.304 646.552C688.135 646.871 692.306 647.421 696.573 647.772L704.329 648.411L695.995 646.131C676.787 640.874 660.848 631.895 649.584 619.986C630.408 599.71 620.932 577.257 620.884 551.981C620.863 540.497 622.409 536.869 623.605 545.598C628.555 581.709 645.068 598.834 674.939 598.834C703.209 598.834 718.907 586.72 730.712 555.795ZM723.169 608.884C723.002 597.237 730.139 589.411 742.783 587.38C749.258 586.34 753.329 586.926 760.478 589.927C766.917 592.628 770.557 596.56 772.737 603.168C775.83 612.538 769.9 623.098 757.573 630.172C755.2 631.534 753.256 633.096 753.256 633.641C753.256 634.186 754.528 635.904 756.083 637.458C760.607 641.985 771.66 640.754 778.548 634.957C780.467 633.342 782.037 632.477 782.037 633.035C782.037 635.077 772.09 643.668 766.495 646.458C759.923 649.736 746.66 652.38 741.735 651.394C736.172 650.282 723.672 643.657 720.233 640L716.992 636.552L721.022 638.604C726.491 641.391 734.109 641.275 738.046 638.346C742.704 634.882 742.663 631.773 737.93 629.526C733.347 627.351 727.296 621.503 724.909 616.944C723.991 615.189 723.208 611.562 723.169 608.884ZM729.59 601.209C730.67 600.015 733.199 598.227 735.211 597.236C740.842 594.457 745.777 594.864 748.504 598.332C749.781 599.955 750.583 601.914 750.288 602.684C749.992 603.453 746.862 605.813 743.33 607.924C736.132 612.232 733.203 611.895 729.565 606.341C727.745 603.563 727.746 603.247 729.59 601.209ZM636.463 727.745C638.332 727.718 641.646 726.745 643.831 725.581C647.643 723.551 647.99 723.548 652.466 725.496C663.758 730.41 678.56 737.055 687.06 741.029C692.126 743.396 703.782 748.685 712.963 752.781C722.144 756.877 733.59 762.176 738.397 764.557L747.137 768.884L768.329 759.137C779.984 753.777 802.134 743.509 817.55 736.318C844.838 723.592 845.668 723.29 848.884 724.954C850.701 725.893 854.129 727.065 856.501 727.558L860.814 728.455L851.645 732.851C846.603 735.27 824.086 745.282 801.608 755.1C779.13 764.918 757.822 774.231 754.255 775.795L747.772 778.639L731.806 771.752C648.878 735.977 633.345 729.326 633.772 728.059C633.884 727.727 635.088 727.764 636.463 727.745ZM599.455 803.872C601.594 795.521 605.653 789.209 613.766 781.622C620.406 775.413 622.015 774.914 622.015 779.068C622.015 782.972 624.993 789.885 628.115 793.233C631.177 796.517 636.56 799.324 645.04 802.06C658.685 806.462 667.995 813.291 670.434 820.686C672.28 826.279 669.228 835.991 664.32 840.14C656.973 846.35 651.694 847.839 638.836 847.325C624.334 846.745 615.54 843.22 607.708 834.845C598.975 825.507 596.394 815.82 599.455 803.872ZM851.594 801.895C866.232 796.916 870.8 792.473 872.425 781.63C873.215 776.359 873.312 776.251 875.702 777.925C887.024 785.855 895.058 798.794 895.804 810.303C896.762 825.073 889.658 836.091 874.614 843.17C867.494 846.52 865.344 846.962 854.262 847.357C842.698 847.768 841.452 847.592 835.582 844.719C824.702 839.395 820.759 829.757 825.589 820.288C829.826 811.983 837.132 806.815 851.594 801.895ZM610.459 927.771C608.369 912.739 611.961 894.007 621.15 872.009C624.424 864.172 624.857 863.662 628.219 863.677C635.707 863.709 636.519 864.431 637.655 872.069L638.708 879.157L662.309 889.059C675.289 894.505 689.535 900.66 693.968 902.734C698.4 904.81 705.912 908.053 710.661 909.94C715.409 911.827 725.234 915.956 732.493 919.116C739.949 922.362 746.71 924.622 748.034 924.311C749.324 924.008 755.559 921.693 761.89 919.163C778.507 912.526 841.213 887.164 849.602 883.686L856.727 880.733L857.499 874.546C858.45 866.932 859.699 865.279 865.231 864.309C869.524 863.557 869.589 863.603 871.985 869.075C875.772 877.716 881.762 897.912 883.352 907.395C887.304 930.976 879.466 954.234 862.986 967.83L855.446 974.051L851.126 971.192C844.58 966.859 835.886 963.934 827.141 963.121L819.267 962.388L825.74 949.582C832.029 937.143 837.957 921.508 836.816 920.368C836.508 920.059 831.476 923.816 825.634 928.717C807.577 943.87 792.617 952.496 775.472 957.641C761.682 961.778 737.222 962.105 722.173 958.351C704.055 953.833 686.515 943.95 668.655 928.192C663.598 923.731 659.116 920.081 658.694 920.081C656.312 920.081 668.362 950.41 673.754 957.983C675.057 959.814 676.124 961.554 676.124 961.848C676.124 962.144 672.889 962.752 668.934 963.199C659.79 964.234 650.397 967.51 644.284 971.795L639.498 975.15L632.859 969.781C621.142 960.303 612.81 944.677 610.459 927.771ZM656.562 986.858C660.665 984.765 670.552 982.687 680.153 981.9C689.547 981.131 697.997 981.386 697.997 982.438C697.997 984.711 694.67 986.614 693.356 989.72C693.182 990.131 693.107 990.371 692.934 990.784C689.41 999.171 683.623 1003.11 676.039 1006.82C665.349 1012.05 652.736 1012.37 647.544 1007.53C641.93 1002.3 646.403 992.042 656.562 986.858ZM802.285 981.75C810.397 982.638 819.9 982.2 827.877 983.864C840.996 986.599 849.96 994.306 849.96 1002.85C849.96 1012.77 830.384 1013.71 814.551 1004.56C810.007 1001.93 796.234 981.084 802.285 981.75Z" fill="#400799"/>
</g>
<defs>
<clipPath id="clip0_8007_63298">
<rect width="373" height="621" fill="white" transform="translate(561 410)"/>
</clipPath>
</defs>
</svg>
